PathFileType	4	(X/Y/Z)	RBDS020static.trc
DataRate	CameraRate	NumFrames	NumMarkers	Units	OrigDataRate	OrigDataStartFrame	OrigNumFrames
150.000000	150.000000	4	48	mm	150.000000	75	150
Frame#	Time	L.Ankle			L.Ankle.Medial			L.ASIS			L.GTR			L.Heel.Bottom			L.Heel.Lateral			L.Heel.Top			L.HF			L.Iliac.Crest			L.Knee			L.Knee.Medial			L.MT1			L.MT2			L.MT5			L.PSIS			L.Shank.Bottom.Lateral			L.Shank.Bottom.Medial			L.Shank.Top.Lateral			L.Shank.Top.Medial			L.Thigh.Bottom.Lateral			L.Thigh.Bottom.Medial			L.Thigh.Top.Lateral			L.Thigh.Top.Medial			L.TT			R.Ankle			R.Ankle.Medial			R.ASIS			R.GTR			R.Heel.Bottom			R.Heel.Lateral			R.Heel.Top			R.HF			R.Iliac.Crest			R.Knee			R.Knee.Medial			R.MT1			R.MT2			R.MT5			R.PSIS			R.Shank.Bottom.Lateral			R.Shank.Bottom.Medial			R.Shank.Top.Lateral			R.Shank.Top.Medial			R.Thigh.Bottom.Lateral			R.Thigh.Bottom.Medial			R.Thigh.Top.Lateral			R.Thigh.Top.Medial			R.TT			
		X1	Y1	Z1	X2	Y2	Z2	X3	Y3	Z3	X4	Y4	Z4	X5	Y5	Z5	X6	Y6	Z6	X7	Y7	Z7	X8	Y8	Z8	X9	Y9	Z9	X10	Y10	Z10	X11	Y11	Z11	X12	Y12	Z12	X13	Y13	Z13	X14	Y14	Z14	X15	Y15	Z15	X16	Y16	Z16	X17	Y17	Z17	X18	Y18	Z18	X19	Y19	Z19	X20	Y20	Z20	X21	Y21	Z21	X22	Y22	Z22	X23	Y23	Z23	X24	Y24	Z24	X25	Y25	Z25	X26	Y26	Z26	X27	Y27	Z27	X28	Y28	Z28	X29	Y29	Z29	X30	Y30	Z30	X31	Y31	Z31	X32	Y32	Z32	X33	Y33	Z33	X34	Y34	Z34	X35	Y35	Z35	X36	Y36	Z36	X37	Y37	Z37	X38	Y38	Z38	X39	Y39	Z39	X40	Y40	Z40	X41	Y41	Z41	X42	Y42	Z42	X43	Y43	Z43	X44	Y44	Z44	X45	Y45	Z45	X46	Y46	Z46	X47	Y47	Z47	X48	Y48	Z48	

76	0.5	705.0635986328125	110.4072418212891	1037.560546875	734.6101684570313	116.6192398071289	1116.116088867188	837.0474853515625	1045.011474609375	1099.105346679688	760.719970703125	937.3650512695313	1040.74462890625	638.8197021484375	39.21421432495117	1085.908203125	661.990234375	61.92808532714844	1042.4521484375	647.2312622070313	87.24504852294922	1085.57373046875	759.2138671875	481.9971618652344	1033.822998046875	771.3853149414063	1090.84228515625	1072.570190429688	757.1483154296875	540.2369995117188	1044.995483398438	762.0588989257813	523.5648803710938	1155.361694335938	857.329345703125	62.04368209838867	1118.194213867188	864.4656372070313	68.94306945800781	1074.689208984375	823.559326171875	48.77018356323242	1011.385131835938	676.619140625	1070.428833007813	1179.662353515625	713.47265625	186.3658599853516	1030.588256835938	675.0924072265625	189.8203125	1070.289916992188	711.2351684570313	266.5832214355469	1022.465881347656	675.0967407226563	270.8104858398438	1062.32763671875	759.368408203125	714.6940307617188	1024.854858398438	701.3397827148438	710.1595458984375	1069.09130859375	749.36962890625	824.0471801757813	1024.725463867188	696.8047485351563	819.4010009765625	1070.728149414063	810.0655517578125	448.4950561523438	1079.439697265625	703.0421752929688	106.4171600341797	1409.631225585938	728.9673461914063	119.7852401733398	1329.897583007813	849.1491088867188	1033.673461914063	1342.657592773438	779.0695190429688	938.76611328125	1392.240600585938	633.6931762695313	40.26316070556641	1367.884155273438	660.9510498046875	57.73165893554688	1411.386840820313	641.0098266601563	82.84114074707031	1367.344482421875	741.42578125	482.6763610839844	1402.408325195313	794.115234375	1084.490966796875	1371.075073242188	742.7756958007813	541.0224609375	1393.180541992188	756.1445922851563	525.7770385742188	1281.402954101563	845.5661010742188	59.99290084838867	1329.514526367188	860.8330688476563	74.57566833496094	1376.446166992188	825.37646484375	50.87679290771484	1439.629150390625	683.4694213867188	1070.771118164063	1274.028686523438	710.1817016601563	202.9196014404297	1416.172973632813	669.34716796875	208.1976928710938	1385.356079101563	713.673095703125	287.5874633789063	1423.618774414063	669.276123046875	288.8033142089844	1393.50146484375	730.3881225585938	677.0804443359375	1398.4765625	684.3681030273438	675.0348510742188	1343.850341796875	725.4752807617188	787.6907958984375	1396.619384765625	683.1054077148438	785.0100708007813	1342.851806640625	797.5429077148438	452.3799743652344	1351.186889648438	
77	0.5066666666666667	705.0726318359375	110.4034194946289	1037.58251953125	734.618408203125	116.610237121582	1116.10986328125	837.0125732421875	1045.014892578125	1099.107666015625	760.6932373046875	937.3731079101563	1040.755126953125	638.818603515625	39.21990585327148	1085.914184570313	661.9928588867188	61.91707611083984	1042.447143554688	647.2276000976563	87.24919891357422	1085.573486328125	759.2081909179688	482.0020751953125	1033.822998046875	771.3462524414063	1090.847534179688	1072.604125976563	757.1349487304688	540.2459716796875	1044.99951171875	762.0692749023438	523.557373046875	1155.369140625	857.3170166015625	62.04927825927734	1118.191650390625	864.4790649414063	68.93743896484375	1074.674072265625	823.5650634765625	48.76187515258789	1011.379577636719	676.5921020507813	1070.425048828125	1179.677124023438	713.467529296875	186.3623504638672	1030.58935546875	675.0980834960938	189.8125152587891	1070.285034179688	711.2366943359375	266.57861328125	1022.472351074219	675.0980224609375	270.8066101074219	1062.325561523438	759.3457641601563	714.6947021484375	1024.854858398438	701.3232421875	710.1565551757813	1069.086303710938	749.341064453125	824.0440063476563	1024.733642578125	696.78125	819.4013671875	1070.724731445313	810.0721435546875	448.4967041015625	1079.435180664063	703.0433349609375	106.4102935791016	1409.63427734375	728.9691772460938	119.7965698242188	1329.899536132813	849.1233520507813	1033.675903320313	1342.662353515625	779.04638671875	938.7733154296875	1392.243896484375	633.6998901367188	40.26000595092773	1367.892211914063	660.9588623046875	57.73915100097656	1411.401977539063	641.0099487304688	82.83708953857422	1367.341674804688	741.3941040039063	482.6700134277344	1402.42626953125	794.0921630859375	1084.512329101563	1371.074096679688	742.7481079101563	541.0176391601563	1393.18408203125	756.1405029296875	525.765869140625	1281.41650390625	845.564453125	59.99287796020508	1329.500732421875	860.8256225585938	74.57492828369141	1376.452880859375	825.37353515625	50.87264633178711	1439.634887695313	683.4331665039063	1070.766845703125	1274.022338867188	710.1771850585938	202.9193420410156	1416.167846679688	669.3440551757813	208.1909942626953	1385.34130859375	713.6542358398438	287.5881652832031	1423.613037109375	669.2632446289063	288.8011474609375	1393.49951171875	730.354248046875	677.0795288085938	1398.470336914063	684.3283081054688	675.0418701171875	1343.854736328125	725.440185546875	787.6942749023438	1396.631103515625	683.072021484375	785.0150146484375	1342.854614257813	797.5203247070313	452.3744812011719	1351.189819335938	
78	0.5133333333333334	705.0610961914063	110.3986587524414	1037.58251953125	734.6142578125	116.6186752319336	1116.10498046875	836.9859619140625	1045.008544921875	1099.110595703125	760.6500244140625	937.3662719726563	1040.768310546875	638.818115234375	39.23320388793945	1085.909301757813	661.9856567382813	61.92672348022461	1042.438110351563	647.2210693359375	87.25046539306641	1085.573608398438	759.2124633789063	481.9915771484375	1033.830078125	771.3182373046875	1090.850341796875	1072.609252929688	757.1412963867188	540.2462158203125	1044.999877929688	762.0536499023438	523.5595703125	1155.362548828125	857.3260498046875	62.05206680297852	1118.1904296875	864.4627685546875	68.93777465820313	1074.68310546875	823.5660400390625	48.76910018920898	1011.379760742188	676.5674438476563	1070.4228515625	1179.6748046875	713.4655151367188	186.3761749267578	1030.581665039063	675.0895385742188	189.8205718994141	1070.278198242188	711.2316284179688	266.5863647460938	1022.474975585938	675.09619140625	270.8047180175781	1062.32958984375	759.3245239257813	714.6856689453125	1024.851440429688	701.3092041015625	710.15185546875	1069.080444335938	749.316650390625	824.0414428710938	1024.734619140625	696.7625122070313	819.3855590820313	1070.743041992188	810.0584716796875	448.4917602539063	1079.442993164063	703.0400390625	106.4103622436523	1409.628051757813	728.969970703125	119.7806777954102	1329.896240234375	849.0836791992188	1033.673217773438	1342.658203125	779.0084228515625	938.767333984375	1392.2490234375	633.6995239257813	40.26052474975586	1367.881958007813	660.9574584960938	57.73702239990234	1411.397094726563	641.010986328125	82.83987426757813	1367.337890625	741.3816528320313	482.6697387695313	1402.42431640625	794.0655517578125	1084.51953125	1371.070434570313	742.7341918945313	541.0177612304688	1393.177490234375	756.100830078125	525.7765502929688	1281.4189453125	845.5675659179688	59.99531936645508	1329.5166015625	860.826171875	74.56470489501953	1376.4423828125	825.3712158203125	50.87546920776367	1439.636962890625	683.4083862304688	1070.759521484375	1274.037841796875	710.1766357421875	202.9186706542969	1416.171508789063	669.340087890625	208.1913452148438	1385.355102539063	713.646240234375	287.5856628417969	1423.619750976563	669.2642211914063	288.7918701171875	1393.517456054688	730.3309326171875	677.0806884765625	1398.480834960938	684.3004760742188	675.0374145507813	1343.851196289063	725.4111938476563	787.6983032226563	1396.6337890625	683.0438232421875	785.0081787109375	1342.862182617188	797.5017700195313	452.3819885253906	1351.19140625	
79	0.52	705.0546264648438	110.4071044921875	1037.576538085938	734.611572265625	116.6246032714844	1116.105102539063	836.9493408203125	1045.005126953125	1099.121826171875	760.6285400390625	937.3717041015625	1040.767944335938	638.814697265625	39.23046875	1085.90625	661.9890747070313	61.91869735717773	1042.446411132813	647.228515625	87.24832916259766	1085.565063476563	759.2071533203125	482.0034484863281	1033.815673828125	771.2933959960938	1090.847900390625	1072.612426757813	757.133544921875	540.2412719726563	1045.001586914063	762.060791015625	523.5523681640625	1155.360473632813	857.3175659179688	62.05547714233398	1118.1865234375	864.4659423828125	68.94734191894531	1074.684814453125	823.5675659179688	48.77005767822266	1011.371826171875	676.5333862304688	1070.417358398438	1179.677978515625	713.4608154296875	186.3712615966797	1030.585205078125	675.0964965820313	189.8190307617188	1070.268188476563	711.2301025390625	266.5811462402344	1022.473266601563	675.096435546875	270.804931640625	1062.321655273438	759.315673828125	714.6992797851563	1024.8408203125	701.2893676757813	710.138671875	1069.09375	749.281982421875	824.047607421875	1024.7314453125	696.7476806640625	819.3733520507813	1070.752075195313	810.0699462890625	448.4966430664063	1079.443237304688	703.0386352539063	106.4025192260742	1409.617553710938	728.9500122070313	119.7844772338867	1329.890014648438	849.056396484375	1033.67822265625	1342.664672851563	778.9798583984375	938.771728515625	1392.248291015625	633.6953125	40.2578125	1367.888916015625	660.9530029296875	57.73442840576172	1411.390869140625	641.0079345703125	82.8360595703125	1367.34521484375	741.3666381835938	482.6699523925781	1402.412475585938	794.0479125976563	1084.51806640625	1371.058837890625	742.6940307617188	541.0232543945313	1393.1767578125	756.0982055664063	525.7713623046875	1281.4189453125	845.5509033203125	59.99179840087891	1329.511962890625	860.8298950195313	74.57523345947266	1376.449340820313	825.373291015625	50.88320541381836	1439.627075195313	683.3817138671875	1070.773193359375	1274.0458984375	710.169189453125	202.9195556640625	1416.170288085938	669.3258056640625	208.1898040771484	1385.336181640625	713.6394653320313	287.5867309570313	1423.623779296875	669.253662109375	288.7881164550781	1393.517456054688	730.3060913085938	677.081298828125	1398.4775390625	684.2694702148438	675.0368041992188	1343.859619140625	725.3781127929688	787.6937866210938	1396.635498046875	683.0148315429688	785.0012817382813	1342.8603515625	797.4765625	452.3807373046875	1351.193115234375	
